<svg xmlns="http://www.w3.org/2000/svg" xmlns:xlink="http://www.w3.org/1999/xlink" width="1637.689" height="433.475" viewBox="0 0 1637.689 433.475"><defs><linearGradient id="a" x1="0.114" y1="0.805" x2="1.016" y2="0.546" gradientUnits="objectBoundingBox"><stop offset="0" stop-color="#1f3765"/><stop offset="1" stop-color="#12203b"/></linearGradient><filter id="b" x="911.83" y="0" width="725.859" height="418.475" filterUnits="userSpaceOnUse"><feOffset dy="-10" input="SourceAlpha"/><feGaussianBlur stdDeviation="7.5" result="c"/><feFlood flood-opacity="0.161"/><feComposite operator="in" in2="c"/><feComposite in="SourceGraphic"/></filter><linearGradient id="d" x1="0.925" y1="0.568" x2="0.056" y2="0.825" gradientUnits="objectBoundingBox"><stop offset="0" stop-color="#1e396d"/><stop offset="1" stop-color="#12203b"/></linearGradient><filter id="e" x="0" y="38.702" width="806.795" height="394.773" filterUnits="userSpaceOnUse"><feOffset dy="-10" input="SourceAlpha"/><feGaussianBlur stdDeviation="12.5" result="f"/><feFlood flood-opacity="0.161"/><feComposite operator="in" in2="f"/><feComposite in="SourceGraphic"/></filter></defs><g transform="translate(-90.143 -98.162)"><g transform="matrix(1, 0, 0, 1, 90.14, 98.16)" filter="url(#b)"><path d="M680.857,269.787a115.325,115.325,0,0,1-57.606,100.377L20.015,373.475A102.088,102.088,0,0,1,157.563,227.145a100.923,100.923,0,0,1,95.7-70.6,155.687,155.687,0,0,1,311.37-1.708A115.583,115.583,0,0,1,680.857,269.787" transform="translate(934.33 32.5)" fill="url(#a)"/></g><g transform="matrix(1, 0, 0, 1, 90.14, 98.16)" filter="url(#e)"><path d="M1393.436,779.277a42.029,42.029,0,0,0-13.026,2.028,64.733,64.733,0,0,0,1.1-11.963,67.829,67.829,0,0,0-120.391-42.834,105.718,105.718,0,0,0-161.832-67.226,44.125,44.125,0,0,0,.333-5.583,47.834,47.834,0,0,0-47.818-47.85,47.357,47.357,0,0,0-18.676,3.788,69.155,69.155,0,0,0-127.57-32.733A100.872,100.872,0,0,0,769.808,706.571,79.5,79.5,0,0,0,783.7,864.345h609.739a42.534,42.534,0,1,0,0-85.068" transform="translate(-666.68 -458.37)" fill="url(#d)"/></g></g></svg>