<svg xmlns="http://www.w3.org/2000/svg" xmlns:xlink="http://www.w3.org/1999/xlink" width="1288.222" height="341.257" viewBox="0 0 1288.222 341.257"><defs><linearGradient id="a" x1="0.928" y1="0.5" x2="0.061" y2="0.934" gradientUnits="objectBoundingBox"><stop offset="0" stop-color="#203868"/><stop offset="1" stop-color="#12203b"/></linearGradient><filter id="b" x="0" y="0" width="630.386" height="341.257" filterUnits="userSpaceOnUse"><feOffset dy="-10" input="SourceAlpha"/><feGaussianBlur stdDeviation="7.5" result="c"/><feFlood flood-opacity="0.361"/><feComposite operator="in" in2="c"/><feComposite in="SourceGraphic"/></filter><linearGradient id="d" x1="0.041" y1="0.579" x2="0.935" y2="0.828" xlink:href="#a"/><filter id="e" x="725.421" y="66.657" width="562.801" height="274.6" filterUnits="userSpaceOnUse"><feOffset dy="-10" input="SourceAlpha"/><feGaussianBlur stdDeviation="7.5" result="f"/><feFlood flood-opacity="0.302"/><feComposite operator="in" in2="f"/><feComposite in="SourceGraphic"/></filter></defs><g transform="translate(-251.552 -395.445)"><g transform="matrix(1, 0, 0, 1, 251.55, 395.45)" filter="url(#b)"><path d="M1233.06,146.056a76.991,76.991,0,0,0-41.085,11.8,60.617,60.617,0,0,0-94.109-70.045,96.542,96.542,0,0,0-192.153,13.375c0,2.684.1,5.345.328,7.967a76.408,76.408,0,0,0-91.551,66.092,65.163,65.163,0,1,0-24.249,125.651H1233.06a77.418,77.418,0,0,0,0-154.836" transform="translate(-702.59 27.86)" fill="url(#a)"/></g><g transform="matrix(1, 0, 0, 1, 251.55, 395.45)" filter="url(#e)"><path d="M888.9,453.683c0,16.3-15.349,30.056-36.384,34.5H471.157c-55.237,0-100.055-31.593-100.055-70.533,0-35.266,36.763-64.488,84.753-69.7a34.264,34.264,0,0,1-.52-5.845c0-26.449,30.415-47.89,67.934-47.89,16.724,0,32.072,4.308,43.917,11.421,14.544-27.485,52.111-47.055,96.121-47.055,56.565,0,102.424,32.328,102.424,72.2a50.4,50.4,0,0,1-2.843,16.831c3.317-.3,6.68-.468,10.138-.468,43.774,0,79.258,25.015,79.258,55.873a40.571,40.571,0,0,1-3.127,15.529c22.741,3.64,39.747,17.967,39.747,35.132" transform="translate(376.82 -159.42)" fill="url(#d)"/></g></g></svg>