<svg xmlns="http://www.w3.org/2000/svg" xmlns:xlink="http://www.w3.org/1999/xlink" width="321.879" height="376.701" viewBox="0 0 321.879 376.701"><defs><linearGradient id="a" x1="0.806" x2="0.13" y2="1" gradientUnits="objectBoundingBox"><stop offset="0" stop-color="#fafeff"/><stop offset="0.446" stop-color="#dfe2e3"/><stop offset="1" stop-color="#7d7f80"/></linearGradient></defs><g transform="translate(-801.996 -391.781)"><path d="M32.311,366.106S231.8,381.2,262.618,375.359c27.11-5.134,54.229-23.668,54.41-69.312.167-42.466,5.982-227.607,4.654-246.936-1.228-17.86-3.7-45.384-42.428-51.162C253.436,4.1,92.912.637,73.7.072,47.836-.689,14.754,3.64,7.406,64.615,2.133,108.358-.664,280.08.135,294.306s-2.819,70.04,32.176,71.8" transform="translate(801.996 391.781)" fill="url(#a)"/><path d="M25,1a21.245,21.245,0,0,0-9.3,2.14A24.019,24.019,0,0,0,8.074,9.007,27.919,27.919,0,0,0,2.9,17.754a31.3,31.3,0,0,0,0,21.491,27.919,27.919,0,0,0,5.172,8.747A24.019,24.019,0,0,0,15.7,53.86a21.26,21.26,0,0,0,18.594,0,24.019,24.019,0,0,0,7.629-5.866A27.919,27.919,0,0,0,47.1,39.246a31.3,31.3,0,0,0,0-21.491,27.919,27.919,0,0,0-5.172-8.747A24.019,24.019,0,0,0,34.3,3.14,21.245,21.245,0,0,0,25,1m0-1C38.807,0,50,12.76,50,28.5S38.807,57,25,57,0,44.24,0,28.5,11.193,0,25,0Z" transform="translate(839.575 613.909)" fill="#9fa4a7"/><path d="M15.5,1A13.951,13.951,0,0,0,5.269,5.517,15.947,15.947,0,0,0,1,16.5,15.947,15.947,0,0,0,5.269,27.483a13.845,13.845,0,0,0,20.463,0A15.947,15.947,0,0,0,30,16.5,15.947,15.947,0,0,0,25.731,5.517,13.951,13.951,0,0,0,15.5,1m0-1C24.06,0,31,7.387,31,16.5S24.06,33,15.5,33,0,25.613,0,16.5,6.94,0,15.5,0Z" transform="translate(889.575 670.909)" fill="#9fa4a7"/><path d="M10,1C5.037,1,1,5.486,1,11s4.037,10,9,10,9-4.486,9-10S14.963,1,10,1m0-1c5.523,0,10,4.925,10,11S15.523,22,10,22,0,17.075,0,11,4.477,0,10,0Z" transform="translate(896.575 610.909)" fill="#9fa4a7"/><path d="M6.5,1C3.467,1,1,3.916,1,7.5S3.467,14,6.5,14,12,11.084,12,7.5,9.533,1,6.5,1m0-1C10.09,0,13,3.358,13,7.5S10.09,15,6.5,15,0,11.642,0,7.5,2.91,0,6.5,0Z" transform="translate(1067.575 508.909)" fill="#eceeef"/><path d="M17,1A16.754,16.754,0,0,0,5.653,5.279,13.756,13.756,0,0,0,1,15.5,13.756,13.756,0,0,0,5.653,25.721,16.754,16.754,0,0,0,17,30a16.754,16.754,0,0,0,11.347-4.279A13.756,13.756,0,0,0,33,15.5,13.756,13.756,0,0,0,28.347,5.279,16.754,16.754,0,0,0,17,1m0-1c9.389,0,17,6.94,17,15.5S26.389,31,17,31,0,24.06,0,15.5,7.611,0,17,0Z" transform="translate(921.575 492.909)" fill="#d1d2d2"/></g></svg>