<svg xmlns="http://www.w3.org/2000/svg" xmlns:xlink="http://www.w3.org/1999/xlink" width="978.186" height="585.031" viewBox="0 0 978.186 585.031"><defs><clipPath id="a"><rect width="26.96" height="33.163" fill="#f8f0f1"/></clipPath><clipPath id="d"><rect width="54.601" height="67.165" fill="#f8f0f1"/></clipPath><clipPath id="e"><rect width="20.372" height="25.059" fill="#f8f0f1"/></clipPath><clipPath id="g"><rect width="10.186" height="12.53" fill="#f8f0f1"/></clipPath></defs><g transform="translate(-38.031 -57.499)"><g transform="translate(159.58 57.499)" opacity="0.5"><g transform="translate(0 0)" clip-path="url(#a)"><path d="M12.625,30.171l.856,2.991.859-2.991A20.4,20.4,0,0,1,25.253,17.384l1.708-.807-1.708-.807A20.4,20.4,0,0,1,14.34,2.986L13.481,0l-.856,2.988A20.347,20.347,0,0,1,1.713,15.769L0,16.576l1.713.807A20.35,20.35,0,0,1,12.625,30.171" transform="translate(0 0.001)" fill="#f8f0f1"/></g></g><g transform="translate(731.58 162.569)" opacity="0.5"><g transform="translate(0 0)" clip-path="url(#a)"><path d="M12.625,30.171l.856,2.991.859-2.991A20.4,20.4,0,0,1,25.253,17.384l1.708-.807-1.708-.807A20.4,20.4,0,0,1,14.34,2.986L13.481,0l-.856,2.988A20.347,20.347,0,0,1,1.713,15.769L0,16.576l1.713.807A20.35,20.35,0,0,1,12.625,30.171" transform="translate(0 0.001)" fill="#f8f0f1"/></g></g><g transform="translate(79.1 308.364)" opacity="0.5"><g transform="translate(0 0)" clip-path="url(#a)"><path d="M12.625,30.171l.856,2.991.859-2.991A20.4,20.4,0,0,1,25.253,17.384l1.708-.807-1.708-.807A20.4,20.4,0,0,1,14.34,2.986L13.481,0l-.856,2.988A20.347,20.347,0,0,1,1.713,15.769L0,16.576l1.713.807A20.35,20.35,0,0,1,12.625,30.171" transform="translate(0 0.001)" fill="#f8f0f1"/></g></g><g transform="translate(207.58 63.498)" opacity="0.5"><g transform="translate(0 0)" clip-path="url(#d)"><path d="M25.569,61.106,27.3,67.165l1.74-6.058a41.311,41.311,0,0,1,22.1-25.9l3.46-1.635-3.46-1.635a41.32,41.32,0,0,1-22.1-25.889L27.3,0,25.569,6.052A41.208,41.208,0,0,1,3.47,31.937L0,33.572l3.47,1.635a41.214,41.214,0,0,1,22.1,25.9" transform="translate(0 0.001)" fill="#f8f0f1"/></g></g><g transform="translate(167.881 617.471)" opacity="0.5"><g transform="translate(0 0)" clip-path="url(#e)"><path d="M9.54,22.8l.647,2.26.649-2.26a15.413,15.413,0,0,1,8.246-9.663l1.291-.61-1.291-.61a15.416,15.416,0,0,1-8.246-9.659L10.186,0,9.54,2.258a15.375,15.375,0,0,1-8.245,9.658L0,12.526l1.295.61A15.377,15.377,0,0,1,9.54,22.8" transform="translate(0 0.001)" fill="#f8f0f1"/></g></g><g transform="translate(497.881 398.887)" opacity="0.5"><g transform="translate(0 0)" clip-path="url(#e)"><path d="M9.54,22.8l.647,2.26.649-2.26a15.413,15.413,0,0,1,8.246-9.663l1.291-.61-1.291-.61a15.416,15.416,0,0,1-8.246-9.659L10.186,0,9.54,2.258a15.375,15.375,0,0,1-8.245,9.658L0,12.526l1.295.61A15.377,15.377,0,0,1,9.54,22.8" transform="translate(0 0.001)" fill="#f8f0f1"/></g></g><g transform="translate(672.031 162.467)" opacity="0.5"><g transform="translate(0 0)" clip-path="url(#g)"><path d="M4.77,11.4l.323,1.13.325-1.13A7.707,7.707,0,0,1,9.541,6.568l.645-.3-.645-.3a7.708,7.708,0,0,1-4.123-4.83L5.093,0,4.77,1.129A7.687,7.687,0,0,1,.647,5.958L0,6.263l.647.3A7.688,7.688,0,0,1,4.77,11.4" transform="translate(0 0)" fill="#f8f0f1"/></g></g><g transform="translate(469.031 392.622)" opacity="0.5"><g transform="translate(0 0)" clip-path="url(#g)"><path d="M4.77,11.4l.323,1.13.325-1.13A7.707,7.707,0,0,1,9.541,6.568l.645-.3-.645-.3a7.708,7.708,0,0,1-4.123-4.83L5.093,0,4.77,1.129A7.687,7.687,0,0,1,.647,5.958L0,6.263l.647.3A7.688,7.688,0,0,1,4.77,11.4" transform="translate(0 0)" fill="#f8f0f1"/></g></g><g transform="translate(1006.031 423.946)" opacity="0.5"><g transform="translate(0 0)" clip-path="url(#g)"><path d="M4.77,11.4l.323,1.13.325-1.13A7.707,7.707,0,0,1,9.541,6.568l.645-.3-.645-.3a7.708,7.708,0,0,1-4.123-4.83L5.093,0,4.77,1.129A7.687,7.687,0,0,1,.647,5.958L0,6.263l.647.3A7.688,7.688,0,0,1,4.77,11.4" transform="translate(0 0)" fill="#f8f0f1"/></g></g><g transform="translate(38.031 289.938)" opacity="0.5"><g transform="translate(0 0)" clip-path="url(#g)"><path d="M4.77,11.4l.323,1.13.325-1.13A7.707,7.707,0,0,1,9.541,6.568l.645-.3-.645-.3a7.708,7.708,0,0,1-4.123-4.83L5.093,0,4.77,1.129A7.687,7.687,0,0,1,.647,5.958L0,6.263l.647.3A7.688,7.688,0,0,1,4.77,11.4" transform="translate(0 0)" fill="#f8f0f1"/></g></g></g></svg>