<svg xmlns="http://www.w3.org/2000/svg" width="20.457" height="20.457" viewBox="0 0 20.457 20.457"><g transform="translate(-1248.771 -404.092)"><path d="M1.859-.161A2.113,2.113,0,0,1,3.933,1.913L4.2,22.385a1.983,1.983,0,0,1-2.02,2.02A2.113,2.113,0,0,1,.108,22.331L-.161,1.859A1.983,1.983,0,0,1,1.859-.161Z" transform="translate(1266.143 404.321) rotate(45)" fill="#102855"/><path d="M4.494.43a1.983,1.983,0,0,1,2.02,2.02L6.245,22.922A2.113,2.113,0,0,1,4.171,25a1.983,1.983,0,0,1-2.02-2.02L2.42,2.5A2.113,2.113,0,0,1,4.494.43Z" transform="translate(1246.947 408.395) rotate(-45)" fill="#102855"/></g></svg>