<svg xmlns="http://www.w3.org/2000/svg" xmlns:xlink="http://www.w3.org/1999/xlink" width="57.907" height="59.157" viewBox="0 0 57.907 59.157"><defs><clipPath id="a"><rect width="57.907" height="59.157" transform="translate(0 0)" fill="none"/></clipPath><clipPath id="b"><path d="M28.954,0A28.954,28.954,0,1,0,57.907,28.953,28.954,28.954,0,0,0,28.954,0Z" fill="none"/></clipPath></defs><g clip-path="url(#a)"><path d="M57.907,28.954A28.954,28.954,0,1,1,28.953,0,28.954,28.954,0,0,1,57.907,28.954" fill="#102855"/></g><g clip-path="url(#b)"><path d="M21.764,59.106c1.338.27,1.828-.584,1.828-1.3,0-.629-.044-6.785-.044-9.031-7.491,1.618-9.051-3.234-9.051-3.234-1.2-3.144-2.987-3.952-2.987-3.952-2.452-1.661.178-1.661.178-1.661a5.645,5.645,0,0,1,4.147,2.784c2.407,4.132,6.286,2.964,7.846,2.246a5.784,5.784,0,0,1,1.694-3.638c-5.974-.629-12.26-2.965-12.26-13.385a10.625,10.625,0,0,1,2.764-7.276,9.866,9.866,0,0,1,.268-7.186s2.273-.719,7.4,2.785a25.655,25.655,0,0,1,13.464,0c5.127-3.5,7.4-2.785,7.4-2.785a9.858,9.858,0,0,1,.267,7.186,10.42,10.42,0,0,1,2.765,7.276c0,10.42-6.286,12.711-12.305,13.385.981.853,1.828,2.47,1.828,5.03,0,3.638-.045,10.558-.045,11.456,0,.718.491,1.572,1.828,1.3" fill="#fff" fill-rule="evenodd"/><path d="M18.542,9.5l.11.391.111-.391a2.605,2.605,0,0,1,1.378-1.642l.216-.1-.215-.1a2.6,2.6,0,0,1-1.379-1.641l-.111-.39-.11.39a2.6,2.6,0,0,1-1.379,1.641l-.216.1.216.1A2.6,2.6,0,0,1,18.542,9.5" fill="#fff"/><path d="M22.98,12.6l.217.77.218-.77A5.132,5.132,0,0,1,26.13,9.37l.425-.2-.424-.2A5.134,5.134,0,0,1,23.415,5.73L23.2,4.962l-.217.768a5.127,5.127,0,0,1-2.716,3.233l-.425.2.425.2A5.12,5.12,0,0,1,22.98,12.6" fill="#fff"/></g></svg>