<svg xmlns="http://www.w3.org/2000/svg" xmlns:xlink="http://www.w3.org/1999/xlink" width="57.907" height="57.907" viewBox="0 0 57.907 57.907"><defs><clipPath id="a"><rect width="57.907" height="57.907" transform="translate(0 0)" fill="none"/></clipPath></defs><g transform="translate(0 0)"><g clip-path="url(#a)"><path d="M57.907,28.954A28.954,28.954,0,1,1,28.953,0,28.954,28.954,0,0,1,57.907,28.954" fill="#102855"/><rect width="6.902" height="23.177" transform="translate(12.263 21.538)" fill="#fff"/><path d="M46.347,32.615v12.1H39.53V32.189A4.531,4.531,0,0,0,35.014,27.5a4.9,4.9,0,0,0-4.942,4.687V44.715H23.255V21.538h6.817v3.238a7.885,7.885,0,0,1,6.561-3.494h1.875a7.874,7.874,0,0,1,7.839,7.839Z" fill="#fff" fill-rule="evenodd"/><path d="M13.911,17.344l.26.923.261-.923a6.161,6.161,0,0,1,3.257-3.879l.509-.244-.508-.244A6.159,6.159,0,0,1,14.432,9.1l-.261-.921-.26.921a6.147,6.147,0,0,1-3.257,3.877l-.51.244.51.244a6.145,6.145,0,0,1,3.257,3.879" fill="#fff"/><path d="M18.867,17.574l.135.48.136-.48a3.2,3.2,0,0,1,1.693-2.017l.265-.127-.264-.127a3.2,3.2,0,0,1-1.694-2.016L19,12.808l-.135.48A3.2,3.2,0,0,1,17.174,15.3l-.266.127.266.127a3.2,3.2,0,0,1,1.693,2.017" fill="#fff"/><path d="M16.385,11l.081.286L16.547,11a1.907,1.907,0,0,1,1.009-1.2l.158-.076-.158-.076a1.907,1.907,0,0,1-1.009-1.2l-.081-.285-.081.286a1.9,1.9,0,0,1-1.01,1.2l-.158.076.158.076a1.906,1.906,0,0,1,1.01,1.2" fill="#fff"/></g></g></svg>