<svg xmlns="http://www.w3.org/2000/svg" xmlns:xlink="http://www.w3.org/1999/xlink" width="106" height="85.028" viewBox="0 0 106 85.028"><defs><clipPath id="a"><rect width="88" height="59" fill="none"/></clipPath></defs><g transform="translate(-391 -741.706)"><path d="M373.2,82.041s66.226,3.974,76.424,2.755c8.973-1.071,17.9-5.15,17.784-15.391-.107-9.528,1.116-51.053.6-55.393-.475-4.011-1.4-10.2-14.268-11.605-8.578-.942-61.835-2.19-68.208-2.374-8.582-.248-19.539.626-21.744,14.287-1.582,9.8-1.856,48.323-1.536,51.517s-.669,15.707,10.946,16.205" transform="translate(28.866 741.706)" fill="#102855"/><g transform="translate(400 755)"><g clip-path="url(#a)"><path d="M3.181-1H82.819A4.186,4.186,0,0,1,87,3.181V52.819A4.186,4.186,0,0,1,82.819,57H3.181A4.186,4.186,0,0,1-1,52.819V3.181A4.186,4.186,0,0,1,3.181-1ZM82.819,55A2.183,2.183,0,0,0,85,52.819V3.181A2.183,2.183,0,0,0,82.819,1H3.181A2.183,2.183,0,0,0,1,3.181V52.819A2.183,2.183,0,0,0,3.181,55Z" transform="translate(1 1)" fill="#fff"/><path d="M62.671,5.336A1.336,1.336,0,1,1,61.336,4a1.336,1.336,0,0,1,1.336,1.336" transform="translate(20.142 1.343)" fill="#fff"/><path d="M59.671,5.336A1.336,1.336,0,1,1,58.336,4a1.336,1.336,0,0,1,1.336,1.336" transform="translate(19.135 1.343)" fill="#fff"/><path d="M56.671,5.336A1.336,1.336,0,1,1,55.336,4a1.336,1.336,0,0,1,1.336,1.336" transform="translate(18.128 1.343)" fill="#fff"/><path d="M38.725,36.707H8a2.009,2.009,0,0,1-2-2V16a2.009,2.009,0,0,1,2-2H38.725a2.009,2.009,0,0,1,2,2V34.7a2.009,2.009,0,0,1-2,2" transform="translate(2.014 4.7)" fill="#fff"/><path d="M76.124,39.678H8a2.009,2.009,0,0,1-2-2V35a2.009,2.009,0,0,1,2-2h68.12a2.009,2.009,0,0,1,2,2v2.671a2.009,2.009,0,0,1-2,2" transform="translate(2.014 11.078)" fill="#fff"/><path d="M27.382.5H0A.5.5,0,0,1-.5,0,.5.5,0,0,1,0-.5H27.382a.5.5,0,0,1,.5.5A.5.5,0,0,1,27.382.5Z" transform="translate(50.089 19.368)" fill="#fff"/><path d="M27.382.5H0A.5.5,0,0,1-.5,0,.5.5,0,0,1,0-.5H27.382a.5.5,0,0,1,.5.5A.5.5,0,0,1,27.382.5Z" transform="translate(50.089 22.039)" fill="#fff"/><path d="M27.382.5H0A.5.5,0,0,1-.5,0,.5.5,0,0,1,0-.5H27.382a.5.5,0,0,1,.5.5A.5.5,0,0,1,27.382.5Z" transform="translate(50.089 24.71)" fill="#fff"/><path d="M27.382.5H0A.5.5,0,0,1-.5,0,.5.5,0,0,1,0-.5H27.382a.5.5,0,0,1,.5.5A.5.5,0,0,1,27.382.5Z" transform="translate(50.089 27.382)" fill="#fff"/></g></g></g></svg>