<svg xmlns="http://www.w3.org/2000/svg" width="23.537" height="26.865" viewBox="0 0 23.537 26.865"><path d="M8.257,4.937H10.82V23.255l-6.928-1.8V16.991l2.373.38v1.993l1.993.38Zm4.485,0h7.094l-.475,2.838H15.45v4.657h3.911l-.475,9.4-6.145,1.424V20.312l4.152-1.424L17.133,15l-4.392.636ZM0,0,1.971,24.089l9.887,2.779,9.6-2.779L23.537.05Z" transform="translate(0 -0.002)" fill="#102855"/><path d="M1099.739,212.756V235l7.964-2.31,1.729-19.9Zm7.5,5.479h-3.911v4.657h3.911l-.475,9.4-6.145,1.424v-2.942l4.152-1.424.24-3.891-4.392.636V215.4h7.094Z" transform="translate(-1087.881 -210.462)" fill="#51596a"/></svg>