<svg xmlns="http://www.w3.org/2000/svg" width="23.664" height="27.009" viewBox="0 0 23.664 27.009"><path d="M4.255,5.162H19.246V8.02L12.36,10.879h6.318l-.763,9.112-5.977,1.9L5.7,20.153l-.39-4.661H8.218l.244,2.241,3.167.812,3.492-.682.374-3.947H5.181L4.775,11.09l7-3H4.661ZM0,0,1.981,24.213l9.94,2.793,9.647-2.793L23.664.046Z" transform="translate(0 0.003)" fill="#102855"/><path d="M1103.312,1284.006h-3.573v4.572l3.2-.625Z" transform="translate(-1087.818 -1270.087)" fill="#414d64"/><path d="M1099.739,212.752v2.859h7.325v2.858l-6.886,2.858h6.318l-.763,9.112-5.977,1.9-.016,0v2.782l8.007-2.322,1.738-20.009Z" transform="translate(-1087.818 -210.445)" fill="#51596a"/></svg>