<svg xmlns="http://www.w3.org/2000/svg" width="23.543" height="26.871" viewBox="0 0 23.543 26.871"><path d="M4.25,4.914H19.164l-.275,2.941H7.5L7.8,10.941h10.81l-.824,9.146-6.124,1.7-6.076-1.7-.4-4.686H8.144L8.322,17.7l3.345.969,3.3-.889.4-3.846H5.074ZM0,0,1.971,24.094l9.889,2.779,9.6-2.779L23.543.05Z" transform="translate(0 -0.002)" fill="#102855"/><path d="M1099.739,212.756v2.618h7.3l-.275,2.941h-7.029V221.4h6.754l-.824,9.146-5.93,1.643v2.817l7.966-2.311,1.729-19.907Z" transform="translate(-1087.879 -210.462)" fill="#51596a"/><path d="M1103.245,1291.528h-3.506v4.682l3.1-.836Z" transform="translate(-1087.879 -1277.599)" fill="#51596a"/></svg>