<svg xmlns="http://www.w3.org/2000/svg" xmlns:xlink="http://www.w3.org/1999/xlink" width="106" height="85.028" viewBox="0 0 106 85.028"><defs><clipPath id="a"><rect width="88.225" height="60.612" fill="none"/></clipPath></defs><g transform="translate(-647 -741.706)"><path d="M373.2,82.041s66.226,3.974,76.424,2.755c8.973-1.071,17.9-5.15,17.784-15.391-.107-9.528,1.116-51.053.6-55.393-.475-4.011-1.4-10.2-14.268-11.605-8.578-.942-61.835-2.19-68.208-2.374-8.582-.248-19.539.626-21.744,14.287-1.582,9.8-1.856,48.323-1.536,51.517s-.669,15.707,10.946,16.205" transform="translate(284.866 741.706)" fill="#102855"/><g transform="translate(655.775 755)"><g transform="translate(0 0)"><g clip-path="url(#a)"><path d="M3.181-1H82.37a4.186,4.186,0,0,1,4.181,4.181V52.962a4.186,4.186,0,0,1-4.181,4.181H3.181A4.186,4.186,0,0,1-1,52.962V3.181A4.186,4.186,0,0,1,3.181-1ZM82.37,55.143a2.183,2.183,0,0,0,2.181-2.181V3.181A2.183,2.183,0,0,0,82.37,1H3.181A2.183,2.183,0,0,0,1,3.181V52.962a2.183,2.183,0,0,0,2.181,2.181Z" transform="translate(1.337 1.337)" fill="#fff"/><path d="M62.673,5.337A1.337,1.337,0,1,1,61.337,4a1.337,1.337,0,0,1,1.337,1.337" transform="translate(20.205 1.347)" fill="#fff"/><path d="M59.673,5.337A1.337,1.337,0,1,1,58.337,4a1.337,1.337,0,0,1,1.337,1.337" transform="translate(19.194 1.347)" fill="#fff"/><path d="M56.673,5.337A1.337,1.337,0,1,1,55.337,4a1.337,1.337,0,0,1,1.337,1.337" transform="translate(18.184 1.347)" fill="#fff"/><text transform="translate(12.912 44.227)" fill="#fff" font-size="33" font-family="Pacifico-Regular, Pacifico"><tspan x="0" y="0">&lt;</tspan></text></g></g><text transform="translate(36.305 44.595)" fill="#fff" font-size="23" font-family="Pacifico-Regular, Pacifico"><tspan x="0" y="0">/</tspan></text><g transform="translate(0 0)"><g clip-path="url(#a)"><text transform="translate(48.552 44.227)" fill="#fff" font-size="33" font-family="Pacifico-Regular, Pacifico"><tspan x="0" y="0">&gt;</tspan></text></g></g></g></g></svg>