<svg xmlns="http://www.w3.org/2000/svg" xmlns:xlink="http://www.w3.org/1999/xlink" width="43.519" height="22.654" viewBox="0 0 43.519 22.654"><defs><clipPath id="a"><rect width="43.519" height="22.654" transform="translate(0 0)" fill="none"/></clipPath></defs><g transform="translate(0 0)" clip-path="url(#a)"><path d="M1732.126,470.891h-1.938l-.745,4.471h1.789c1.341-.149,2.534-.6,2.683-3.13,0-.894-.745-1.341-1.788-1.341" transform="translate(-1699.337 -462.694)" fill="#102855" fill-rule="evenodd"/><path d="M21.76,0C9.742,0,0,5.074,0,11.33S9.742,22.657,21.76,22.657s21.76-5.071,21.76-11.327S33.777,0,21.76,0m-9.539,14.9H9.539l-.6,3.13H6.111L8.5,5.964H14.01c2.385.149,3.577,1.341,3.577,3.428a5.274,5.274,0,0,1-5.365,5.514M23.441,8.2H21.206l-1.341,6.707H17.032L19.417,2.835h2.832l-.6,3.13h2.683c2.385.149,3.279,1.341,2.981,2.832l-1.043,6.111H23.292l1.043-5.514c.149-.745.149-1.192-.894-1.192m8.751,6.707H29.51l-.6,3.13H26.082L28.466,5.964h5.514c2.385.149,3.577,1.341,3.577,3.428a5.274,5.274,0,0,1-5.365,5.514" transform="translate(0 -0.003)" fill="#102855" fill-rule="evenodd"/><path d="M584.871,470.891h-1.937l-.745,4.471h1.789c1.341-.149,2.534-.6,2.683-3.13,0-.894-.745-1.341-1.788-1.341" transform="translate(-572.053 -462.694)" fill="#102855" fill-rule="evenodd"/></g></svg>