<svg xmlns="http://www.w3.org/2000/svg" xmlns:xlink="http://www.w3.org/1999/xlink" width="54.919" height="28.588" viewBox="0 0 54.919 28.588"><defs><clipPath id="a"><rect width="54.919" height="28.588" transform="translate(0 0)" fill="none"/></clipPath></defs><g transform="translate(0 -0.003)"><g transform="translate(0 0.003)" clip-path="url(#a)"><path d="M1732.829,470.891h-2.445l-.94,5.643h2.257c1.693-.188,3.2-.752,3.385-3.95,0-1.128-.94-1.693-2.257-1.693" transform="translate(-1691.451 -460.547)" fill="#fff" fill-rule="evenodd"/><path d="M27.459,0C12.294,0,0,6.4,0,14.3S12.294,28.591,27.459,28.591s27.459-6.4,27.459-14.294S42.625,0,27.459,0M15.422,18.811H12.037l-.752,3.95H7.711L10.721,7.526h6.959c3.009.188,4.514,1.693,4.514,4.326a6.655,6.655,0,0,1-6.771,6.959m14.159-8.464H26.76l-1.693,8.464H21.494L24.5,3.577h3.574l-.752,3.949H30.71c3.009.188,4.138,1.693,3.762,3.574l-1.317,7.711H29.393l1.317-6.959c.188-.94.188-1.5-1.128-1.5m11.044,8.464H37.24l-.752,3.95H32.914L35.923,7.526h6.959c3.009.188,4.514,1.693,4.514,4.326a6.655,6.655,0,0,1-6.771,6.959" transform="translate(0 -0.003)" fill="#fff" fill-rule="evenodd"/><path d="M585.573,470.891h-2.445l-.94,5.643h2.257c1.693-.188,3.2-.752,3.385-3.95,0-1.128-.94-1.693-2.257-1.693" transform="translate(-569.399 -460.547)" fill="#fff" fill-rule="evenodd"/></g></g></svg>