<svg xmlns="http://www.w3.org/2000/svg" xmlns:xlink="http://www.w3.org/1999/xlink" width="81" height="133" viewBox="0 0 81 133"><defs><clipPath id="a"><rect width="85" height="329" fill="none"/></clipPath><clipPath id="b"><rect width="35.001" height="162.84" fill="none"/></clipPath><clipPath id="i"><rect width="81" height="133"/></clipPath></defs><g id="h" clip-path="url(#i)"><rect width="81" height="133" fill="#fff"/><g transform="translate(0 -196)" clip-path="url(#a)"><g clip-path="url(#b)"><path d="M48.973,8.914a1.8,1.8,0,0,0,1.763-1.832V1.833a1.764,1.764,0,1,0-3.526,0V7.082a1.8,1.8,0,0,0,1.763,1.832" transform="translate(-21.756 0)" fill="#f5b600"/><path d="M48.973,74.232a1.792,1.792,0,0,0,1.763-1.815V59.466a1.764,1.764,0,1,0-3.526,0V72.417a1.792,1.792,0,0,0,1.763,1.815" transform="translate(-21.756 -26.568)" fill="#f5b600"/><path d="M48.973,38.1a1.786,1.786,0,0,0,1.763-1.8V26.018a1.764,1.764,0,1,0-3.526,0V36.3a1.786,1.786,0,0,0,1.763,1.8" transform="translate(-21.756 -11.158)" fill="#f5b600"/><path d="M48.973,155.42a1.8,1.8,0,0,0,1.763-1.832v-5.249a1.764,1.764,0,1,0-3.526,0v5.249a1.8,1.8,0,0,0,1.763,1.832" transform="translate(-21.756 -67.516)" fill="#f5b600"/><path d="M48.973,184.606a1.786,1.786,0,0,0,1.763-1.8V172.524a1.764,1.764,0,1,0-3.526,0V182.8a1.786,1.786,0,0,0,1.763,1.8" transform="translate(-21.756 -78.673)" fill="#f5b600"/><path d="M43.135,117.029l.47,1.668.472-1.668a11.124,11.124,0,0,1,5.883-7.007l.92-.442-.919-.441a11.127,11.127,0,0,1-5.884-7l-.472-1.664-.47,1.665a11.1,11.1,0,0,1-5.884,7l-.921.441.921.442a11.1,11.1,0,0,1,5.884,7.007" transform="translate(-16.742 -46.301)" fill="#f5b600"/><path d="M39.65,212.645l.229.814.23-.814a5.427,5.427,0,0,1,2.871-3.418l.449-.216-.448-.215a5.428,5.428,0,0,1-2.871-3.417l-.23-.812-.229.813A5.416,5.416,0,0,1,36.78,208.8l-.45.215.45.216a5.415,5.415,0,0,1,2.871,3.418" transform="translate(-16.742 -94.272)" fill="#f5b600"/><path d="M50.468,227.988l.336,1.194.338-1.194a7.963,7.963,0,0,1,4.212-5.017l.658-.316-.658-.316a7.964,7.964,0,0,1-4.213-5.015l-.338-1.192-.336,1.192a7.948,7.948,0,0,1-4.212,5.014l-.66.316.66.316a7.949,7.949,0,0,1,4.212,5.017" transform="translate(-21.012 -99.602)" fill="#f5b600"/><path d="M12.643,70.6a1.8,1.8,0,0,0,1.763-1.832V63.519a1.764,1.764,0,1,0-3.526,0v5.249A1.8,1.8,0,0,0,12.643,70.6" transform="translate(-5.014 -28.428)" fill="#f5b600"/><path d="M12.643,135.919a1.792,1.792,0,0,0,1.763-1.815V121.153a1.764,1.764,0,1,0-3.526,0V134.1a1.792,1.792,0,0,0,1.763,1.815" transform="translate(-5.014 -54.995)" fill="#f5b600"/><path d="M12.643,99.787a1.786,1.786,0,0,0,1.763-1.8V87.7a1.764,1.764,0,1,0-3.526,0V97.983a1.786,1.786,0,0,0,1.763,1.8" transform="translate(-5.014 -39.586)" fill="#f5b600"/><path d="M12.643,217.106a1.8,1.8,0,0,0,1.763-1.832v-5.249a1.764,1.764,0,1,0-3.526,0v5.249a1.8,1.8,0,0,0,1.763,1.832" transform="translate(-5.014 -95.943)" fill="#f5b600"/><path d="M12.643,246.293a1.786,1.786,0,0,0,1.763-1.8V234.211a1.764,1.764,0,1,0-3.526,0v10.278a1.786,1.786,0,0,0,1.763,1.8" transform="translate(-5.014 -107.101)" fill="#f5b600"/><path d="M6.805,178.715l.47,1.668.472-1.668a11.124,11.124,0,0,1,5.883-7.007l.92-.442-.919-.441a11.127,11.127,0,0,1-5.884-7l-.472-1.664-.47,1.665a11.1,11.1,0,0,1-5.884,7L0,171.267l.921.442a11.1,11.1,0,0,1,5.884,7.007" transform="translate(0 -74.728)" fill="#f5b600"/><path d="M3.32,274.332l.229.814.23-.814a5.427,5.427,0,0,1,2.871-3.418L7.1,270.7l-.448-.215a5.428,5.428,0,0,1-2.871-3.417l-.23-.812-.229.813A5.416,5.416,0,0,1,.45,270.483L0,270.7l.45.216a5.415,5.415,0,0,1,2.871,3.418" transform="translate(0 -122.699)" fill="#f5b600"/><path d="M14.138,289.675l.336,1.194.338-1.194a7.963,7.963,0,0,1,4.212-5.017l.658-.316-.658-.316a7.964,7.964,0,0,1-4.213-5.015l-.338-1.192-.336,1.192a7.948,7.948,0,0,1-4.212,5.014l-.66.316.66.316a7.949,7.949,0,0,1,4.212,5.017" transform="translate(-4.27 -128.029)" fill="#f5b600"/></g><g transform="translate(46)"><g clip-path="url(#b)"><path d="M48.973,8.914a1.8,1.8,0,0,0,1.763-1.832V1.833a1.764,1.764,0,1,0-3.526,0V7.082a1.8,1.8,0,0,0,1.763,1.832" transform="translate(-21.756 0)" fill="#f5b600"/><path d="M48.973,74.232a1.792,1.792,0,0,0,1.763-1.815V59.466a1.764,1.764,0,1,0-3.526,0V72.417a1.792,1.792,0,0,0,1.763,1.815" transform="translate(-21.756 -26.568)" fill="#f5b600"/><path d="M48.973,38.1a1.786,1.786,0,0,0,1.763-1.8V26.018a1.764,1.764,0,1,0-3.526,0V36.3a1.786,1.786,0,0,0,1.763,1.8" transform="translate(-21.756 -11.158)" fill="#f5b600"/><path d="M48.973,155.42a1.8,1.8,0,0,0,1.763-1.832v-5.249a1.764,1.764,0,1,0-3.526,0v5.249a1.8,1.8,0,0,0,1.763,1.832" transform="translate(-21.756 -67.516)" fill="#f5b600"/><path d="M48.973,184.606a1.786,1.786,0,0,0,1.763-1.8V172.524a1.764,1.764,0,1,0-3.526,0V182.8a1.786,1.786,0,0,0,1.763,1.8" transform="translate(-21.756 -78.673)" fill="#f5b600"/><path d="M43.135,117.029l.47,1.668.472-1.668a11.124,11.124,0,0,1,5.883-7.007l.92-.442-.919-.441a11.127,11.127,0,0,1-5.884-7l-.472-1.664-.47,1.665a11.1,11.1,0,0,1-5.884,7l-.921.441.921.442a11.1,11.1,0,0,1,5.884,7.007" transform="translate(-16.742 -46.301)" fill="#f5b600"/><path d="M39.65,212.645l.229.814.23-.814a5.427,5.427,0,0,1,2.871-3.418l.449-.216-.448-.215a5.428,5.428,0,0,1-2.871-3.417l-.23-.812-.229.813A5.416,5.416,0,0,1,36.78,208.8l-.45.215.45.216a5.415,5.415,0,0,1,2.871,3.418" transform="translate(-16.742 -94.272)" fill="#f5b600"/><path d="M50.468,227.988l.336,1.194.338-1.194a7.963,7.963,0,0,1,4.212-5.017l.658-.316-.658-.316a7.964,7.964,0,0,1-4.213-5.015l-.338-1.192-.336,1.192a7.948,7.948,0,0,1-4.212,5.014l-.66.316.66.316a7.949,7.949,0,0,1,4.212,5.017" transform="translate(-21.012 -99.602)" fill="#f5b600"/><path d="M12.643,70.6a1.8,1.8,0,0,0,1.763-1.832V63.519a1.764,1.764,0,1,0-3.526,0v5.249A1.8,1.8,0,0,0,12.643,70.6" transform="translate(-5.014 -28.428)" fill="#f5b600"/><path d="M12.643,135.919a1.792,1.792,0,0,0,1.763-1.815V121.153a1.764,1.764,0,1,0-3.526,0V134.1a1.792,1.792,0,0,0,1.763,1.815" transform="translate(-5.014 -54.995)" fill="#f5b600"/><path d="M12.643,99.787a1.786,1.786,0,0,0,1.763-1.8V87.7a1.764,1.764,0,1,0-3.526,0V97.983a1.786,1.786,0,0,0,1.763,1.8" transform="translate(-5.014 -39.586)" fill="#f5b600"/><path d="M12.643,217.106a1.8,1.8,0,0,0,1.763-1.832v-5.249a1.764,1.764,0,1,0-3.526,0v5.249a1.8,1.8,0,0,0,1.763,1.832" transform="translate(-5.014 -95.943)" fill="#f5b600"/><path d="M12.643,246.293a1.786,1.786,0,0,0,1.763-1.8V234.211a1.764,1.764,0,1,0-3.526,0v10.278a1.786,1.786,0,0,0,1.763,1.8" transform="translate(-5.014 -107.101)" fill="#f5b600"/><path d="M6.805,178.715l.47,1.668.472-1.668a11.124,11.124,0,0,1,5.883-7.007l.92-.442-.919-.441a11.127,11.127,0,0,1-5.884-7l-.472-1.664-.47,1.665a11.1,11.1,0,0,1-5.884,7L0,171.267l.921.442a11.1,11.1,0,0,1,5.884,7.007" transform="translate(0 -74.728)" fill="#f5b600"/><path d="M3.32,274.332l.229.814.23-.814a5.427,5.427,0,0,1,2.871-3.418L7.1,270.7l-.448-.215a5.428,5.428,0,0,1-2.871-3.417l-.23-.812-.229.813A5.416,5.416,0,0,1,.45,270.483L0,270.7l.45.216a5.415,5.415,0,0,1,2.871,3.418" transform="translate(0 -122.699)" fill="#f5b600"/><path d="M14.138,289.675l.336,1.194.338-1.194a7.963,7.963,0,0,1,4.212-5.017l.658-.316-.658-.316a7.964,7.964,0,0,1-4.213-5.015l-.338-1.192-.336,1.192a7.948,7.948,0,0,1-4.212,5.014l-.66.316.66.316a7.949,7.949,0,0,1,4.212,5.017" transform="translate(-4.27 -128.029)" fill="#f5b600"/></g></g><g transform="translate(0 133)"><g clip-path="url(#b)"><path d="M48.973,8.914a1.8,1.8,0,0,0,1.763-1.832V1.833a1.764,1.764,0,1,0-3.526,0V7.082a1.8,1.8,0,0,0,1.763,1.832" transform="translate(-21.756 0)" fill="#f5b600"/><path d="M48.973,74.232a1.792,1.792,0,0,0,1.763-1.815V59.466a1.764,1.764,0,1,0-3.526,0V72.417a1.792,1.792,0,0,0,1.763,1.815" transform="translate(-21.756 -26.568)" fill="#f5b600"/><path d="M48.973,38.1a1.786,1.786,0,0,0,1.763-1.8V26.018a1.764,1.764,0,1,0-3.526,0V36.3a1.786,1.786,0,0,0,1.763,1.8" transform="translate(-21.756 -11.158)" fill="#f5b600"/><path d="M48.973,155.42a1.8,1.8,0,0,0,1.763-1.832v-5.249a1.764,1.764,0,1,0-3.526,0v5.249a1.8,1.8,0,0,0,1.763,1.832" transform="translate(-21.756 -67.516)" fill="#f5b600"/><path d="M48.973,184.606a1.786,1.786,0,0,0,1.763-1.8V172.524a1.764,1.764,0,1,0-3.526,0V182.8a1.786,1.786,0,0,0,1.763,1.8" transform="translate(-21.756 -78.673)" fill="#f5b600"/><path d="M43.135,117.029l.47,1.668.472-1.668a11.124,11.124,0,0,1,5.883-7.007l.92-.442-.919-.441a11.127,11.127,0,0,1-5.884-7l-.472-1.664-.47,1.665a11.1,11.1,0,0,1-5.884,7l-.921.441.921.442a11.1,11.1,0,0,1,5.884,7.007" transform="translate(-16.742 -46.301)" fill="#f5b600"/><path d="M39.65,212.645l.229.814.23-.814a5.427,5.427,0,0,1,2.871-3.418l.449-.216-.448-.215a5.428,5.428,0,0,1-2.871-3.417l-.23-.812-.229.813A5.416,5.416,0,0,1,36.78,208.8l-.45.215.45.216a5.415,5.415,0,0,1,2.871,3.418" transform="translate(-16.742 -94.272)" fill="#f5b600"/><path d="M50.468,227.988l.336,1.194.338-1.194a7.963,7.963,0,0,1,4.212-5.017l.658-.316-.658-.316a7.964,7.964,0,0,1-4.213-5.015l-.338-1.192-.336,1.192a7.948,7.948,0,0,1-4.212,5.014l-.66.316.66.316a7.949,7.949,0,0,1,4.212,5.017" transform="translate(-21.012 -99.602)" fill="#f5b600"/><path d="M12.643,70.6a1.8,1.8,0,0,0,1.763-1.832V63.519a1.764,1.764,0,1,0-3.526,0v5.249A1.8,1.8,0,0,0,12.643,70.6" transform="translate(-5.014 -28.428)" fill="#f5b600"/><path d="M12.643,135.919a1.792,1.792,0,0,0,1.763-1.815V121.153a1.764,1.764,0,1,0-3.526,0V134.1a1.792,1.792,0,0,0,1.763,1.815" transform="translate(-5.014 -54.995)" fill="#f5b600"/><path d="M12.643,99.787a1.786,1.786,0,0,0,1.763-1.8V87.7a1.764,1.764,0,1,0-3.526,0V97.983a1.786,1.786,0,0,0,1.763,1.8" transform="translate(-5.014 -39.586)" fill="#f5b600"/><path d="M12.643,217.106a1.8,1.8,0,0,0,1.763-1.832v-5.249a1.764,1.764,0,1,0-3.526,0v5.249a1.8,1.8,0,0,0,1.763,1.832" transform="translate(-5.014 -95.943)" fill="#f5b600"/><path d="M12.643,246.293a1.786,1.786,0,0,0,1.763-1.8V234.211a1.764,1.764,0,1,0-3.526,0v10.278a1.786,1.786,0,0,0,1.763,1.8" transform="translate(-5.014 -107.101)" fill="#f5b600"/><path d="M6.805,178.715l.47,1.668.472-1.668a11.124,11.124,0,0,1,5.883-7.007l.92-.442-.919-.441a11.127,11.127,0,0,1-5.884-7l-.472-1.664-.47,1.665a11.1,11.1,0,0,1-5.884,7L0,171.267l.921.442a11.1,11.1,0,0,1,5.884,7.007" transform="translate(0 -74.728)" fill="#f5b600"/><path d="M3.32,274.332l.229.814.23-.814a5.427,5.427,0,0,1,2.871-3.418L7.1,270.7l-.448-.215a5.428,5.428,0,0,1-2.871-3.417l-.23-.812-.229.813A5.416,5.416,0,0,1,.45,270.483L0,270.7l.45.216a5.415,5.415,0,0,1,2.871,3.418" transform="translate(0 -122.699)" fill="#f5b600"/><path d="M14.138,289.675l.336,1.194.338-1.194a7.963,7.963,0,0,1,4.212-5.017l.658-.316-.658-.316a7.964,7.964,0,0,1-4.213-5.015l-.338-1.192-.336,1.192a7.948,7.948,0,0,1-4.212,5.014l-.66.316.66.316a7.949,7.949,0,0,1,4.212,5.017" transform="translate(-4.27 -128.029)" fill="#f5b600"/></g></g><g transform="translate(46 133)"><g clip-path="url(#b)"><path d="M48.973,8.914a1.8,1.8,0,0,0,1.763-1.832V1.833a1.764,1.764,0,1,0-3.526,0V7.082a1.8,1.8,0,0,0,1.763,1.832" transform="translate(-21.756 0)" fill="#f5b600"/><path d="M48.973,74.232a1.792,1.792,0,0,0,1.763-1.815V59.466a1.764,1.764,0,1,0-3.526,0V72.417a1.792,1.792,0,0,0,1.763,1.815" transform="translate(-21.756 -26.568)" fill="#f5b600"/><path d="M48.973,38.1a1.786,1.786,0,0,0,1.763-1.8V26.018a1.764,1.764,0,1,0-3.526,0V36.3a1.786,1.786,0,0,0,1.763,1.8" transform="translate(-21.756 -11.158)" fill="#f5b600"/><path d="M48.973,155.42a1.8,1.8,0,0,0,1.763-1.832v-5.249a1.764,1.764,0,1,0-3.526,0v5.249a1.8,1.8,0,0,0,1.763,1.832" transform="translate(-21.756 -67.516)" fill="#f5b600"/><path d="M48.973,184.606a1.786,1.786,0,0,0,1.763-1.8V172.524a1.764,1.764,0,1,0-3.526,0V182.8a1.786,1.786,0,0,0,1.763,1.8" transform="translate(-21.756 -78.673)" fill="#f5b600"/><path d="M43.135,117.029l.47,1.668.472-1.668a11.124,11.124,0,0,1,5.883-7.007l.92-.442-.919-.441a11.127,11.127,0,0,1-5.884-7l-.472-1.664-.47,1.665a11.1,11.1,0,0,1-5.884,7l-.921.441.921.442a11.1,11.1,0,0,1,5.884,7.007" transform="translate(-16.742 -46.301)" fill="#f5b600"/><path d="M39.65,212.645l.229.814.23-.814a5.427,5.427,0,0,1,2.871-3.418l.449-.216-.448-.215a5.428,5.428,0,0,1-2.871-3.417l-.23-.812-.229.813A5.416,5.416,0,0,1,36.78,208.8l-.45.215.45.216a5.415,5.415,0,0,1,2.871,3.418" transform="translate(-16.742 -94.272)" fill="#f5b600"/><path d="M50.468,227.988l.336,1.194.338-1.194a7.963,7.963,0,0,1,4.212-5.017l.658-.316-.658-.316a7.964,7.964,0,0,1-4.213-5.015l-.338-1.192-.336,1.192a7.948,7.948,0,0,1-4.212,5.014l-.66.316.66.316a7.949,7.949,0,0,1,4.212,5.017" transform="translate(-21.012 -99.602)" fill="#f5b600"/><path d="M12.643,70.6a1.8,1.8,0,0,0,1.763-1.832V63.519a1.764,1.764,0,1,0-3.526,0v5.249A1.8,1.8,0,0,0,12.643,70.6" transform="translate(-5.014 -28.428)" fill="#f5b600"/><path d="M12.643,135.919a1.792,1.792,0,0,0,1.763-1.815V121.153a1.764,1.764,0,1,0-3.526,0V134.1a1.792,1.792,0,0,0,1.763,1.815" transform="translate(-5.014 -54.995)" fill="#f5b600"/><path d="M12.643,99.787a1.786,1.786,0,0,0,1.763-1.8V87.7a1.764,1.764,0,1,0-3.526,0V97.983a1.786,1.786,0,0,0,1.763,1.8" transform="translate(-5.014 -39.586)" fill="#f5b600"/><path d="M12.643,217.106a1.8,1.8,0,0,0,1.763-1.832v-5.249a1.764,1.764,0,1,0-3.526,0v5.249a1.8,1.8,0,0,0,1.763,1.832" transform="translate(-5.014 -95.943)" fill="#f5b600"/><path d="M12.643,246.293a1.786,1.786,0,0,0,1.763-1.8V234.211a1.764,1.764,0,1,0-3.526,0v10.278a1.786,1.786,0,0,0,1.763,1.8" transform="translate(-5.014 -107.101)" fill="#f5b600"/><path d="M6.805,178.715l.47,1.668.472-1.668a11.124,11.124,0,0,1,5.883-7.007l.92-.442-.919-.441a11.127,11.127,0,0,1-5.884-7l-.472-1.664-.47,1.665a11.1,11.1,0,0,1-5.884,7L0,171.267l.921.442a11.1,11.1,0,0,1,5.884,7.007" transform="translate(0 -74.728)" fill="#f5b600"/><path d="M3.32,274.332l.229.814.23-.814a5.427,5.427,0,0,1,2.871-3.418L7.1,270.7l-.448-.215a5.428,5.428,0,0,1-2.871-3.417l-.23-.812-.229.813A5.416,5.416,0,0,1,.45,270.483L0,270.7l.45.216a5.415,5.415,0,0,1,2.871,3.418" transform="translate(0 -122.699)" fill="#f5b600"/><path d="M14.138,289.675l.336,1.194.338-1.194a7.963,7.963,0,0,1,4.212-5.017l.658-.316-.658-.316a7.964,7.964,0,0,1-4.213-5.015l-.338-1.192-.336,1.192a7.948,7.948,0,0,1-4.212,5.014l-.66.316.66.316a7.949,7.949,0,0,1,4.212,5.017" transform="translate(-4.27 -128.029)" fill="#f5b600"/></g></g><g transform="translate(0 266)"><g clip-path="url(#b)"><path d="M48.973,8.914a1.8,1.8,0,0,0,1.763-1.832V1.833a1.764,1.764,0,1,0-3.526,0V7.082a1.8,1.8,0,0,0,1.763,1.832" transform="translate(-21.756 0)" fill="#f5b600"/><path d="M48.973,74.232a1.792,1.792,0,0,0,1.763-1.815V59.466a1.764,1.764,0,1,0-3.526,0V72.417a1.792,1.792,0,0,0,1.763,1.815" transform="translate(-21.756 -26.568)" fill="#f5b600"/><path d="M48.973,38.1a1.786,1.786,0,0,0,1.763-1.8V26.018a1.764,1.764,0,1,0-3.526,0V36.3a1.786,1.786,0,0,0,1.763,1.8" transform="translate(-21.756 -11.158)" fill="#f5b600"/><path d="M48.973,155.42a1.8,1.8,0,0,0,1.763-1.832v-5.249a1.764,1.764,0,1,0-3.526,0v5.249a1.8,1.8,0,0,0,1.763,1.832" transform="translate(-21.756 -67.516)" fill="#f5b600"/><path d="M48.973,184.606a1.786,1.786,0,0,0,1.763-1.8V172.524a1.764,1.764,0,1,0-3.526,0V182.8a1.786,1.786,0,0,0,1.763,1.8" transform="translate(-21.756 -78.673)" fill="#f5b600"/><path d="M43.135,117.029l.47,1.668.472-1.668a11.124,11.124,0,0,1,5.883-7.007l.92-.442-.919-.441a11.127,11.127,0,0,1-5.884-7l-.472-1.664-.47,1.665a11.1,11.1,0,0,1-5.884,7l-.921.441.921.442a11.1,11.1,0,0,1,5.884,7.007" transform="translate(-16.742 -46.301)" fill="#f5b600"/><path d="M39.65,212.645l.229.814.23-.814a5.427,5.427,0,0,1,2.871-3.418l.449-.216-.448-.215a5.428,5.428,0,0,1-2.871-3.417l-.23-.812-.229.813A5.416,5.416,0,0,1,36.78,208.8l-.45.215.45.216a5.415,5.415,0,0,1,2.871,3.418" transform="translate(-16.742 -94.272)" fill="#f5b600"/><path d="M50.468,227.988l.336,1.194.338-1.194a7.963,7.963,0,0,1,4.212-5.017l.658-.316-.658-.316a7.964,7.964,0,0,1-4.213-5.015l-.338-1.192-.336,1.192a7.948,7.948,0,0,1-4.212,5.014l-.66.316.66.316a7.949,7.949,0,0,1,4.212,5.017" transform="translate(-21.012 -99.602)" fill="#f5b600"/><path d="M12.643,70.6a1.8,1.8,0,0,0,1.763-1.832V63.519a1.764,1.764,0,1,0-3.526,0v5.249A1.8,1.8,0,0,0,12.643,70.6" transform="translate(-5.014 -28.428)" fill="#f5b600"/><path d="M12.643,135.919a1.792,1.792,0,0,0,1.763-1.815V121.153a1.764,1.764,0,1,0-3.526,0V134.1a1.792,1.792,0,0,0,1.763,1.815" transform="translate(-5.014 -54.995)" fill="#f5b600"/><path d="M12.643,99.787a1.786,1.786,0,0,0,1.763-1.8V87.7a1.764,1.764,0,1,0-3.526,0V97.983a1.786,1.786,0,0,0,1.763,1.8" transform="translate(-5.014 -39.586)" fill="#f5b600"/><path d="M12.643,217.106a1.8,1.8,0,0,0,1.763-1.832v-5.249a1.764,1.764,0,1,0-3.526,0v5.249a1.8,1.8,0,0,0,1.763,1.832" transform="translate(-5.014 -95.943)" fill="#f5b600"/><path d="M12.643,246.293a1.786,1.786,0,0,0,1.763-1.8V234.211a1.764,1.764,0,1,0-3.526,0v10.278a1.786,1.786,0,0,0,1.763,1.8" transform="translate(-5.014 -107.101)" fill="#f5b600"/><path d="M6.805,178.715l.47,1.668.472-1.668a11.124,11.124,0,0,1,5.883-7.007l.92-.442-.919-.441a11.127,11.127,0,0,1-5.884-7l-.472-1.664-.47,1.665a11.1,11.1,0,0,1-5.884,7L0,171.267l.921.442a11.1,11.1,0,0,1,5.884,7.007" transform="translate(0 -74.728)" fill="#f5b600"/><path d="M3.32,274.332l.229.814.23-.814a5.427,5.427,0,0,1,2.871-3.418L7.1,270.7l-.448-.215a5.428,5.428,0,0,1-2.871-3.417l-.23-.812-.229.813A5.416,5.416,0,0,1,.45,270.483L0,270.7l.45.216a5.415,5.415,0,0,1,2.871,3.418" transform="translate(0 -122.699)" fill="#f5b600"/><path d="M14.138,289.675l.336,1.194.338-1.194a7.963,7.963,0,0,1,4.212-5.017l.658-.316-.658-.316a7.964,7.964,0,0,1-4.213-5.015l-.338-1.192-.336,1.192a7.948,7.948,0,0,1-4.212,5.014l-.66.316.66.316a7.949,7.949,0,0,1,4.212,5.017" transform="translate(-4.27 -128.029)" fill="#f5b600"/></g></g><g transform="translate(46 266)"><g clip-path="url(#b)"><path d="M48.973,8.914a1.8,1.8,0,0,0,1.763-1.832V1.833a1.764,1.764,0,1,0-3.526,0V7.082a1.8,1.8,0,0,0,1.763,1.832" transform="translate(-21.756 0)" fill="#f5b600"/><path d="M48.973,74.232a1.792,1.792,0,0,0,1.763-1.815V59.466a1.764,1.764,0,1,0-3.526,0V72.417a1.792,1.792,0,0,0,1.763,1.815" transform="translate(-21.756 -26.568)" fill="#f5b600"/><path d="M48.973,38.1a1.786,1.786,0,0,0,1.763-1.8V26.018a1.764,1.764,0,1,0-3.526,0V36.3a1.786,1.786,0,0,0,1.763,1.8" transform="translate(-21.756 -11.158)" fill="#f5b600"/><path d="M48.973,155.42a1.8,1.8,0,0,0,1.763-1.832v-5.249a1.764,1.764,0,1,0-3.526,0v5.249a1.8,1.8,0,0,0,1.763,1.832" transform="translate(-21.756 -67.516)" fill="#f5b600"/><path d="M48.973,184.606a1.786,1.786,0,0,0,1.763-1.8V172.524a1.764,1.764,0,1,0-3.526,0V182.8a1.786,1.786,0,0,0,1.763,1.8" transform="translate(-21.756 -78.673)" fill="#f5b600"/><path d="M43.135,117.029l.47,1.668.472-1.668a11.124,11.124,0,0,1,5.883-7.007l.92-.442-.919-.441a11.127,11.127,0,0,1-5.884-7l-.472-1.664-.47,1.665a11.1,11.1,0,0,1-5.884,7l-.921.441.921.442a11.1,11.1,0,0,1,5.884,7.007" transform="translate(-16.742 -46.301)" fill="#f5b600"/><path d="M39.65,212.645l.229.814.23-.814a5.427,5.427,0,0,1,2.871-3.418l.449-.216-.448-.215a5.428,5.428,0,0,1-2.871-3.417l-.23-.812-.229.813A5.416,5.416,0,0,1,36.78,208.8l-.45.215.45.216a5.415,5.415,0,0,1,2.871,3.418" transform="translate(-16.742 -94.272)" fill="#f5b600"/><path d="M50.468,227.988l.336,1.194.338-1.194a7.963,7.963,0,0,1,4.212-5.017l.658-.316-.658-.316a7.964,7.964,0,0,1-4.213-5.015l-.338-1.192-.336,1.192a7.948,7.948,0,0,1-4.212,5.014l-.66.316.66.316a7.949,7.949,0,0,1,4.212,5.017" transform="translate(-21.012 -99.602)" fill="#f5b600"/><path d="M12.643,70.6a1.8,1.8,0,0,0,1.763-1.832V63.519a1.764,1.764,0,1,0-3.526,0v5.249A1.8,1.8,0,0,0,12.643,70.6" transform="translate(-5.014 -28.428)" fill="#f5b600"/><path d="M12.643,135.919a1.792,1.792,0,0,0,1.763-1.815V121.153a1.764,1.764,0,1,0-3.526,0V134.1a1.792,1.792,0,0,0,1.763,1.815" transform="translate(-5.014 -54.995)" fill="#f5b600"/><path d="M12.643,99.787a1.786,1.786,0,0,0,1.763-1.8V87.7a1.764,1.764,0,1,0-3.526,0V97.983a1.786,1.786,0,0,0,1.763,1.8" transform="translate(-5.014 -39.586)" fill="#f5b600"/><path d="M12.643,217.106a1.8,1.8,0,0,0,1.763-1.832v-5.249a1.764,1.764,0,1,0-3.526,0v5.249a1.8,1.8,0,0,0,1.763,1.832" transform="translate(-5.014 -95.943)" fill="#f5b600"/><path d="M12.643,246.293a1.786,1.786,0,0,0,1.763-1.8V234.211a1.764,1.764,0,1,0-3.526,0v10.278a1.786,1.786,0,0,0,1.763,1.8" transform="translate(-5.014 -107.101)" fill="#f5b600"/><path d="M6.805,178.715l.47,1.668.472-1.668a11.124,11.124,0,0,1,5.883-7.007l.92-.442-.919-.441a11.127,11.127,0,0,1-5.884-7l-.472-1.664-.47,1.665a11.1,11.1,0,0,1-5.884,7L0,171.267l.921.442a11.1,11.1,0,0,1,5.884,7.007" transform="translate(0 -74.728)" fill="#f5b600"/><path d="M3.32,274.332l.229.814.23-.814a5.427,5.427,0,0,1,2.871-3.418L7.1,270.7l-.448-.215a5.428,5.428,0,0,1-2.871-3.417l-.23-.812-.229.813A5.416,5.416,0,0,1,.45,270.483L0,270.7l.45.216a5.415,5.415,0,0,1,2.871,3.418" transform="translate(0 -122.699)" fill="#f5b600"/><path d="M14.138,289.675l.336,1.194.338-1.194a7.963,7.963,0,0,1,4.212-5.017l.658-.316-.658-.316a7.964,7.964,0,0,1-4.213-5.015l-.338-1.192-.336,1.192a7.948,7.948,0,0,1-4.212,5.014l-.66.316.66.316a7.949,7.949,0,0,1,4.212,5.017" transform="translate(-4.27 -128.029)" fill="#f5b600"/></g></g></g></g></svg>