<svg xmlns="http://www.w3.org/2000/svg" width="29.71" height="33.91" viewBox="0 0 29.71 33.91"><g transform="translate(0 -0.002)"><path d="M5.363,6.2H24.184l-.346,3.711H9.462l.387,3.895H23.49L22.45,25.348l-7.728,2.141L7.055,25.348l-.51-5.913h3.732l.224,2.9,4.221,1.223,4.16-1.121.509-4.853H6.4ZM0,0,2.488,30.4l12.479,3.507L27.079,30.4,29.71.063Z" fill="#fff"/><path d="M1099.739,212.756v3.3h9.217l-.346,3.711h-8.87v3.895h8.523l-1.04,11.541-7.483,2.073v3.555l10.053-2.916,2.182-25.122Z" transform="translate(-1084.772 -209.859)" fill="#e6e6e6"/><path d="M1104.164,1291.528h-4.425v5.908l3.915-1.055Z" transform="translate(-1084.772 -1273.949)" fill="#e6e6e6"/></g></svg>