<svg xmlns="http://www.w3.org/2000/svg" xmlns:xlink="http://www.w3.org/1999/xlink" width="106" height="85.028" viewBox="0 0 106 85.028"><defs><clipPath id="a"><rect width="88" height="59" fill="none"/></clipPath></defs><g transform="translate(-904 -741.706)"><path d="M373.2,82.041s66.226,3.974,76.424,2.755c8.973-1.071,17.9-5.15,17.784-15.391-.107-9.528,1.116-51.053.6-55.393-.475-4.011-1.4-10.2-14.268-11.605-8.578-.942-61.835-2.19-68.208-2.374-8.582-.248-19.539.626-21.744,14.287-1.582,9.8-1.856,48.323-1.536,51.517s-.669,15.707,10.946,16.205" transform="translate(541.865 741.706)" fill="#102855"/><g transform="translate(913 755)"><g clip-path="url(#a)"><path d="M6.979,48.677a1.333,1.333,0,0,1-.9-2.313L31.521,22.93,39.43,39.9l9.384-13.717L55.529,37.4l20.8-23.659a1.333,1.333,0,1,1,2,1.76L55.117,41.9,48.665,31.121,38.99,45.262l-8.347-17.9L7.882,48.323a1.329,1.329,0,0,1-.9.353" transform="translate(1.882 4.429)" fill="#fff"/><path d="M3.181-1H82.819A4.186,4.186,0,0,1,87,3.181V52.819A4.186,4.186,0,0,1,82.819,57H3.181A4.186,4.186,0,0,1-1,52.819V3.181A4.186,4.186,0,0,1,3.181-1ZM82.819,55A2.183,2.183,0,0,0,85,52.819V3.181A2.183,2.183,0,0,0,82.819,1H3.181A2.183,2.183,0,0,0,1,3.181V52.819A2.183,2.183,0,0,0,3.181,55Z" transform="translate(1 1)" fill="#fff"/><path d="M62.667,5.333A1.333,1.333,0,1,1,61.333,4a1.334,1.334,0,0,1,1.333,1.333" transform="translate(20 1.333)" fill="#fff"/><path d="M59.667,5.333A1.333,1.333,0,1,1,58.333,4a1.334,1.334,0,0,1,1.333,1.333" transform="translate(19 1.333)" fill="#fff"/><path d="M56.667,5.333A1.333,1.333,0,1,1,55.333,4a1.334,1.334,0,0,1,1.333,1.333" transform="translate(18 1.333)" fill="#fff"/></g></g></g></svg>