<svg xmlns="http://www.w3.org/2000/svg" width="29.703" height="33.902" viewBox="0 0 29.703 33.902"><g transform="translate(0 -0.002)"><path d="M10.42,6.23h3.234V29.345L4.911,27.07V21.441L7.9,21.92v2.515l2.515.479Zm5.66,0h8.952l-.6,3.581H19.5v5.877h4.936l-.6,11.861-7.755,1.8V25.633l5.239-1.8.3-4.911-5.542.8ZM0,0,2.487,30.4,14.963,33.9,27.073,30.4,29.7.063Z" transform="translate(0 0)" fill="#fff"/><path d="M1099.739,212.756v28.072l10.051-2.915,2.181-25.116Zm9.469,6.914h-4.936v5.877h4.936l-.6,11.861-7.755,1.8v-3.713l5.24-1.8.3-4.911-5.542.8v-13.5h8.952Z" transform="translate(-1084.776 -209.859)" fill="#e6e6e6"/></g></svg>