<svg xmlns="http://www.w3.org/2000/svg" width="29.862" height="34.084" viewBox="0 0 29.862 34.084"><g transform="translate(0 0.003)"><path d="M5.37,6.515H24.288v3.607L15.6,13.729H23.57l-.963,11.5-7.543,2.4-7.87-2.193L6.7,19.55h3.669l.308,2.828,4,1.025,4.407-.861.472-4.98H6.538L6.026,14,14.859,10.2H5.882ZM0,0,2.5,30.556l12.543,3.525,12.174-3.525L29.862.058Z" fill="#fff"/><path d="M1104.248,1284.006h-4.509v5.769l4.038-.789Z" transform="translate(-1084.695 -1266.444)" fill="#e6e6e6"/><path d="M1099.739,212.752v3.607h9.244v3.607l-8.69,3.607h7.973l-.963,11.5-7.543,2.4-.02-.006v3.51l10.1-2.931,2.193-25.251Z" transform="translate(-1084.695 -209.844)" fill="#e6e6e6"/></g></svg>