<svg xmlns="http://www.w3.org/2000/svg" xmlns:xlink="http://www.w3.org/1999/xlink" width="100" height="117.033" viewBox="0 0 100 117.033"><defs><clipPath id="a"><rect width="80.414" height="81.187" fill="none"/></clipPath></defs><g transform="translate(-288 -355.679)"><path d="M10.039,113.74s61.978,4.688,71.55,2.875c8.423-1.6,16.849-7.354,16.9-21.534.051-13.193,1.858-70.712,1.445-76.717-.381-5.549-1.149-14.1-13.181-15.9C78.736,1.272,28.865.2,22.9.022,14.861-.215,4.584,1.131,2.3,20.074.663,33.665-.206,87.014.042,91.434s-.876,21.76,10,22.307" transform="translate(288 355.68)" fill="#102855"/><rect width="100" height="117.033" transform="translate(288 355.68)" fill="none"/><g transform="translate(297.793 373.602)"><path d="M44.322.073V40.142H55.537V33.872H50.1V.073Z" transform="translate(-18.74 -0.031)" fill="#c31765"/><path d="M65.077.073V40.142h10.95V33.872h-5.6V22.038h4.757v-5.3H70.427V5.573H75.5V.073Z" transform="translate(-27.515 -0.031)" fill="#c31765"/><path d="M109.117.046V81.207h17.434V70.624h-9.244V43.478h8.578V34.87h-8.578V9.07h9.225V.046Z" transform="translate(-46.136 -0.019)" fill="#edaf30"/><path d="M93.15.053,92.024,13.827,90.759.053H85.977L88.062,18.9,85.435,40.145H90.4l1.585-15.663,1.543,15.663h4.948L95.86,18.9,97.945.053Z" transform="translate(-36.123 -0.022)" fill="#c31765"/><g clip-path="url(#a)"><path d="M65.713,111.319V71.265h6.724a4.288,4.288,0,0,1,3.973,2.4,14.759,14.759,0,0,1,1.334,7.021V99.439a24.944,24.944,0,0,1-1.216,8.784,4.315,4.315,0,0,1-4.257,3.1Zm4.918-7.077h.847q1.347,0,1.348-2.14V81.438a6.354,6.354,0,0,0-.327-2.583,1.388,1.388,0,0,0-1.326-.581h-.542Z" transform="translate(-27.784 -30.132)" fill="#edaf30"/><path d="M87.326,111.319V71.265h7.5a3.212,3.212,0,0,1,2.834,1.4,8.971,8.971,0,0,1,1.285,3.914,46.537,46.537,0,0,1,.327,5.906,21.64,21.64,0,0,1-.507,5.235,4.01,4.01,0,0,1-1.91,2.708A2.617,2.617,0,0,1,98.474,92.3a13.252,13.252,0,0,1,.465,3.857v15.157H94.118V95.639a3.389,3.389,0,0,0-.437-2.174,1.985,1.985,0,0,0-1.41-.421v18.274ZM92.3,86.1H93.48q1.014,0,1.014-3.618a13.121,13.121,0,0,0-.223-3.073q-.222-.728-.833-.728H92.3Z" transform="translate(-36.922 -30.132)" fill="#edaf30"/><path d="M9.543,0,0,81.187H7.767L9,68.087h7.874l.05,13.1H24.86V0Z" transform="translate(0 0)" fill="#c31765"/><path d="M44.323,111.319V71.265h4.91l2.2,19.185V71.265h4.612v40.054H51.376L48.988,91.292v20.027Z" transform="translate(-18.74 -30.132)" fill="#edaf30"/></g></g></g></svg>